HIERARCHY
ROOT Hips
{
    OFFSET   0.000000   0.000000   0.000000
    CHANNELS 6 Xposition Yposition Zposition Zrotation Xrotation Yrotation
    JOINT Chest
    {
        OFFSET   0.000000   8.007240   0.000000
        CHANNELS 3 Zrotation Xrotation Yrotation
        JOINT Chest2
        {
            OFFSET   0.000000  22.077100   0.000000
            CHANNELS 3 Zrotation Xrotation Yrotation
            JOINT Neck
            {
                OFFSET   0.000000  23.254800   0.000000
                CHANNELS 3 Zrotation Xrotation Yrotation
                JOINT Head
                {
                    OFFSET   0.000000  14.370000   1.956600
                    CHANNELS 3 Zrotation Xrotation Yrotation
                    End Site
                    {
                        OFFSET   0.000000  19.566000   0.000000
                    }
                }
            }
            JOINT LeftCollar
            {
                OFFSET   3.911900  19.017000  -0.467064
                CHANNELS 3 Zrotation Xrotation Yrotation
                JOINT LeftShoulder
                {
                    OFFSET  10.383700   0.000000   0.000000
                    CHANNELS 3 Zrotation Xrotation Yrotation
                    JOINT LeftElbow
                    {
                        OFFSET  26.662100   0.001476   0.000517
                        CHANNELS 3 Zrotation Xrotation Yrotation
                        JOINT LeftWrist
                        {
                            OFFSET  28.869000  -0.000025  -0.000106
                            CHANNELS 3 Zrotation Xrotation Yrotation
                            JOINT LeftFinger0
                            {
                                OFFSET   2.044660  -2.323460   3.252850
                                CHANNELS 3 Zrotation Xrotation Yrotation
                                JOINT LeftFinger01
                                {
                                    OFFSET   3.088130   0.000000   0.000000
                                    CHANNELS 3 Zrotation Xrotation Yrotation
                                    JOINT LeftFinger02
                                    {
                                        OFFSET   2.639460   0.000000   0.000000
                                        CHANNELS 3 Zrotation Xrotation Yrotation
                                        End Site
                                        {
                                            OFFSET   2.582190   0.000000   0.000000
                                        }
                                    }
                                }
                            }
                            JOINT LeftFinger1
                            {
                                OFFSET   8.364480   0.000000   3.252850
                                CHANNELS 3 Zrotation Xrotation Yrotation
                                JOINT LeftFinger11
                                {
                                    OFFSET   4.646930   0.000000   0.000000
                                    CHANNELS 3 Zrotation Xrotation Yrotation
                                    JOINT LeftFinger12
                                    {
                                        OFFSET   2.323460   0.000000   0.000000
                                        CHANNELS 3 Zrotation Xrotation Yrotation
                                        End Site
                                        {
                                            OFFSET   2.273050   0.000000   0.000000
                                        }
                                    }
                                }
                            }
                            JOINT LeftFinger2
                            {
                                OFFSET   8.364490   0.000015   1.078090
                                CHANNELS 3 Zrotation Xrotation Yrotation
                                JOINT LeftFinger21
                                {
                                    OFFSET   5.111620   0.000000   0.000000
                                    CHANNELS 3 Zrotation Xrotation Yrotation
                                    JOINT LeftFinger22
                                    {
                                        OFFSET   2.788160   0.000016   0.000000
                                        CHANNELS 3 Zrotation Xrotation Yrotation
                                        End Site
                                        {
                                            OFFSET   2.727660   0.000000   0.000000
                                        }
                                    }
                                }
                            }
                            JOINT LeftFinger3
                            {
                                OFFSET   7.899780   0.000017  -1.078090
                                CHANNELS 3 Zrotation Xrotation Yrotation
                                JOINT LeftFinger31
                                {
                                    OFFSET   4.646930   0.000000   0.000000
                                    CHANNELS 3 Zrotation Xrotation Yrotation
                                    JOINT LeftFinger32
                                    {
                                        OFFSET   2.323470   0.000000   0.000000
                                        CHANNELS 3 Zrotation Xrotation Yrotation
                                        End Site
                                        {
                                            OFFSET   2.273050   0.000000   0.000000
                                        }
                                    }
                                }
                            }
                            JOINT LeftFinger4
                            {
                                OFFSET   7.435090   0.000000  -3.252850
                                CHANNELS 3 Zrotation Xrotation Yrotation
                                JOINT LeftFinger41
                                {
                                    OFFSET   3.717550   0.000000   0.000000
                                    CHANNELS 3 Zrotation Xrotation Yrotation
                                    JOINT LeftFinger42
                                    {
                                        OFFSET   1.858770   0.000000   0.000000
                                        CHANNELS 3 Zrotation Xrotation Yrotation
                                        End Site
                                        {
                                            OFFSET   1.818440   0.000000   0.000000
                                        }
                                    }
                                }
                            }
                        }
                    }
                }
            }
            JOINT RightCollar
            {
                OFFSET  -3.911900  19.017000  -0.467063
                CHANNELS 3 Zrotation Xrotation Yrotation
                JOINT RightShoulder
                {
                    OFFSET -10.383700   0.000019   0.000000
                    CHANNELS 3 Zrotation Xrotation Yrotation
                    JOINT RightElbow
                    {
                        OFFSET -26.662100   0.001175   0.000102
                        CHANNELS 3 Zrotation Xrotation Yrotation
                        JOINT RightWrist
                        {
                            OFFSET -28.869000   0.000016  -0.000079
                            CHANNELS 3 Zrotation Xrotation Yrotation
                            JOINT RightFinger0
                            {
                                OFFSET  -2.044660  -2.323490   3.252850
                                CHANNELS 3 Zrotation Xrotation Yrotation
                                JOINT RightFinger01
                                {
                                    OFFSET  -3.088140   0.000000   0.000000
                                    CHANNELS 3 Zrotation Xrotation Yrotation
                                    JOINT RightFinger02
                                    {
                                        OFFSET  -2.639460   0.000000   0.000000
                                        CHANNELS 3 Zrotation Xrotation Yrotation
                                        End Site
                                        {
                                            OFFSET  -2.582190   0.000000   0.000000
                                        }
                                    }
                                }
                            }
                            JOINT RightFinger1
                            {
                                OFFSET  -8.364480   0.000000   3.252850
                                CHANNELS 3 Zrotation Xrotation Yrotation
                                JOINT RightFinger11
                                {
                                    OFFSET  -4.646930   0.000000   0.000000
                                    CHANNELS 3 Zrotation Xrotation Yrotation
                                    JOINT RightFinger12
                                    {
                                        OFFSET  -2.323470   0.000000   0.000000
                                        CHANNELS 3 Zrotation Xrotation Yrotation
                                        End Site
                                        {
                                            OFFSET  -2.273050   0.000000   0.000000
                                        }
                                    }
                                }
                            }
                            JOINT RightFinger2
                            {
                                OFFSET  -8.364480   0.000000   1.078090
                                CHANNELS 3 Zrotation Xrotation Yrotation
                                JOINT RightFinger21
                                {
                                    OFFSET  -5.111620   0.000000   0.000000
                                    CHANNELS 3 Zrotation Xrotation Yrotation
                                    JOINT RightFinger22
                                    {
                                        OFFSET  -2.788160   0.000000   0.000000
                                        CHANNELS 3 Zrotation Xrotation Yrotation
                                        End Site
                                        {
                                            OFFSET  -2.727660   0.000000   0.000000
                                        }
                                    }
                                }
                            }
                            JOINT RightFinger3
                            {
                                OFFSET  -7.899780   0.000000  -1.078090
                                CHANNELS 3 Zrotation Xrotation Yrotation
                                JOINT RightFinger31
                                {
                                    OFFSET  -4.646930   0.000000   0.000000
                                    CHANNELS 3 Zrotation Xrotation Yrotation
                                    JOINT RightFinger32
                                    {
                                        OFFSET  -2.323470   0.000000   0.000000
                                        CHANNELS 3 Zrotation Xrotation Yrotation
                                        End Site
                                        {
                                            OFFSET  -2.273050   0.000000   0.000000
                                        }
                                    }
                                }
                            }
                            JOINT RightFinger4
                            {
                                OFFSET  -7.435090   0.000000  -3.252850
                                CHANNELS 3 Zrotation Xrotation Yrotation
                                JOINT RightFinger41
                                {
                                    OFFSET  -3.717550   0.000000   0.000000
                                    CHANNELS 3 Zrotation Xrotation Yrotation
                                    JOINT RightFinger42
                                    {
                                        OFFSET  -1.858770   0.000000   0.000000
                                        CHANNELS 3 Zrotation Xrotation Yrotation
                                        End Site
                                        {
                                            OFFSET  -1.818440   0.000000   0.000000
                                        }
                                    }
                                }
                            }
                        }
                    }
                }
            }
        }
    }
    JOINT LeftHip
    {
        OFFSET   9.783040   0.000000   0.000000
        CHANNELS 3 Zrotation Xrotation Yrotation
        JOINT LeftKnee
        {
            OFFSET   0.000032 -41.789100  -0.002222
            CHANNELS 3 Zrotation Xrotation Yrotation
            JOINT LeftAnkle
            {
                OFFSET   0.000087 -41.133200  -0.000135
                CHANNELS 3 Zrotation Xrotation Yrotation
                JOINT LeftToe
                {
                    OFFSET   0.000000  -6.358960  14.674500
                    CHANNELS 3 Zrotation Xrotation Yrotation
                    End Site
                    {
                        OFFSET   0.000000   0.000000   3.913200
                    }
                }
            }
        }
    }
    JOINT RightHip
    {
        OFFSET  -9.783040   0.000000   0.000000
        CHANNELS 3 Zrotation Xrotation Yrotation
        JOINT RightKnee
        {
            OFFSET   0.000047 -41.789100  -0.000896
            CHANNELS 3 Zrotation Xrotation Yrotation
            JOINT RightAnkle
            {
                OFFSET  -0.000117 -41.133300  -0.000248
                CHANNELS 3 Zrotation Xrotation Yrotation
                JOINT RightToe
                {
                    OFFSET   0.000000  -6.358970  14.674500
                    CHANNELS 3 Zrotation Xrotation Yrotation
                    End Site
                    {
                        OFFSET   0.000000   0.000000   3.913200
                    }
                }
            }
        }
    }
}
MOTION
Frames: 4
Frame Time:   0.016667
-13.406700  88.523500  -0.003973  -2.548240 -17.922500  -0.584324   6.210850   7.643830  -1.320960  12.766100  15.095300  -3.520950   1.683960  -2.819150   0.087680   2.789120  -5.701230   6.752780 -10.645200  -1.296510  -3.940950 -70.122200  25.827400  -9.410280  -3.667330  -8.295930  -6.903330   2.070410  -5.405020   9.207420  39.848200  30.823200 -71.932500 -15.557800  -0.002301  -0.000579  -2.778890   0.004457   0.002292 -27.494300   5.587750 -10.607900 -22.921100   0.000339   0.000974 -16.044700   0.000183   0.000493 -27.075500   3.559140  -6.925770 -28.228100   0.005260   0.002483 -18.799900   0.001125   0.005417 -27.287900   1.422510  -2.754200 -28.368400   0.000544   0.001282 -18.893400  -0.000292  -0.000689 -29.631400   1.307070  -2.296630 -44.486600  -0.002219  -0.003778 -29.628000  -0.002475  -0.001187   6.215150  -3.951960  16.834000   9.782590  20.304500  79.632700 -17.739400  -3.515630  99.803000  -9.487950  48.851200  29.760500 -64.252800  56.209700 114.551000  25.821700   0.034979  -0.115055   7.910840   0.006718  -0.059893  88.040600   4.992390   0.166086  72.066600  -0.006400   0.001845  54.049800  -0.003712   0.006688  85.171300   0.000316  -0.006051  85.171300  -0.006311   0.000477  63.878400  -0.002864   0.007001  87.987900  -5.002220  -0.178650  87.995500  -0.007309   0.003894  65.996700  -0.001284   0.003503  88.983600  -9.999680  -0.182135 110.000000   0.000000   0.000466  80.000000   0.003875   0.005297   9.697090  13.048600   3.330980   4.473400  18.118900   8.307770 -12.051300  -8.056550  -0.820993   0.000000   0.000000  -0.000000   9.157740  16.113700  -6.564990   1.986540   5.784540 -10.114900  -3.953740  -6.081150   3.671690  -0.000000   0.000000   0.000000
-13.398300  88.532600   0.047474  -2.571390 -17.816000  -0.658424   6.159070   7.634200  -1.343730  12.666100  15.074500  -3.561260   1.728050  -2.830250   0.088212   2.858660  -5.723210   6.883020 -10.616500  -1.161080  -3.784120 -69.951000  26.080800  -9.631030  -3.630760  -8.477230  -6.802060   1.982600  -5.243240   9.253830  39.849500  30.782600 -71.875300 -15.587000  -0.002276  -0.000580  -2.793510   0.004461   0.002300 -27.445100   5.581490 -10.607300 -22.879200   0.000371   0.000977 -16.015400   0.000200   0.000485 -27.055400   3.529970  -6.873770 -28.124400   0.005192   0.002421 -18.730800   0.001119   0.005364 -27.264100   1.422410  -2.757880 -28.259500   0.000593   0.001386 -18.820900  -0.000231  -0.000682 -29.560500   1.318760  -2.323820 -44.381000  -0.002371  -0.003744 -29.557700  -0.002570  -0.001058   6.062460  -3.895850  16.996500   7.384930  20.155200  80.792000 -17.849600  -3.905780 101.519000  -8.453020  48.253900  28.431500 -64.410500  56.210500 114.791000  26.979300   0.039510  -0.115603   8.489620   0.009272  -0.060304  87.353400   4.990740   0.226909  71.472900  -0.010360   0.002267  53.604600  -0.003590   0.006044  84.590700   0.000176  -0.010069  84.590700  -0.010181   0.000779  63.443000  -0.002719   0.007180  87.297300  -5.000240  -0.241167  87.307600  -0.011229   0.003982  65.480700  -0.001346   0.003407  88.983600  -9.999620  -0.182237 110.000000   0.000000   0.000444  80.000000   0.003910   0.005396   9.709630  13.014500   3.344310   4.418290  18.029300   8.376540 -12.056800  -8.022800  -0.809614   0.000000   0.000000  -0.000000   9.133810  16.067400  -6.573080   2.001760   5.719190 -10.024900  -3.921590  -6.072190   3.681760  -0.000000   0.000000   0.000000
-13.402500  88.532200   0.084723  -2.571420 -17.725800  -0.733964   6.080190   7.645550  -1.289790  12.501100  15.105500  -3.445060   1.795600  -2.845030   0.089650   2.974520  -5.751640   6.781110 -10.563500  -1.109940  -3.786440 -69.724100  26.438500  -9.904520  -3.596350  -8.831270  -6.644810   1.884370  -4.949120   9.329020  39.812300  30.745900 -71.857400 -15.512200  -0.002255  -0.000575  -2.756130   0.004461   0.002306 -27.377200   5.616180 -10.696300 -22.828900   0.000402   0.000978 -15.980200   0.000215   0.000477 -27.027200   3.564980  -6.948070 -28.008800   0.005127   0.002363 -18.653900   0.001115   0.005309 -27.240600   1.463210  -2.840470 -28.163300   0.000639   0.001492 -18.756800  -0.000169  -0.000671 -29.502700   1.328300  -2.346050 -44.294900  -0.002514  -0.003712 -29.500400  -0.002663  -0.000929   5.915810  -3.899380  16.933900   5.338730  20.596300  81.851400 -18.969300  -5.805160 102.111000  -7.769470  49.222200  27.572600 -59.014200  54.578000 108.042000  30.093500   0.018296  -0.061177  10.046700   0.003826  -0.031443  86.830400   4.986220   0.270802  71.046100  -0.012784   0.002678  53.284600  -0.003502   0.005392  83.835500   0.000058  -0.010468  83.835500  -0.010498   0.001030  62.876700  -0.002553   0.007312  86.461700  -4.999570  -0.310574  86.475200  -0.011046   0.003977  64.856400  -0.001372   0.003307  88.983600  -9.999550  -0.182334 110.000000   0.000000   0.000427  80.000000   0.003952   0.005492   9.701200  13.026300   3.374670   4.364660  17.909200   8.469590 -12.081600  -7.973460  -0.824960   0.000000   0.000000  -0.000000   9.093160  16.041800  -6.599240   2.006080   5.640660  -9.959020  -3.884740  -6.055710   3.750520  -0.000000   0.000000   0.000000
-13.406700  88.529400   0.113695  -2.561880 -17.656200  -0.816003   5.993910   7.668620  -1.187840  12.313100  15.166400  -3.228430   1.840820  -2.854630   0.090681   3.044960  -5.770930   6.591550 -10.526800  -1.096150  -3.803160 -69.517700  26.773900 -10.132300  -3.540760  -9.086110  -6.539400   1.813320  -4.670640   9.378950  39.779800  30.716200 -71.839300 -15.362400  -0.002233  -0.000561  -2.681220   0.004461   0.002308 -27.297700   5.672780 -10.842800 -22.775200   0.000435   0.000978 -15.942600   0.000231   0.000467 -27.000700   3.634780  -7.092330 -27.941100   0.005064   0.002305 -18.608800   0.001111   0.005256 -27.217900   1.532120  -2.975550 -28.080000   0.000684   0.001598 -18.701300  -0.000109  -0.000660 -29.451700   1.336650  -2.365620 -44.219000  -0.002653  -0.003680 -29.449800  -0.002755  -0.000797   5.830020  -3.918160  16.784900   4.315470  20.868800  82.493600 -20.145600  -7.536620 101.832000  -7.372970  50.082700  27.113700 -52.333200  51.436400  99.677800  33.341900  -0.002918  -0.005782  11.670900  -0.002196  -0.002582  86.570800   4.982990   0.291945  70.841200  -0.013749   0.003084  53.130900  -0.003463   0.004730  83.195900   0.000000  -0.010525  83.195900  -0.010543   0.001162  62.397000  -0.002374   0.007390  85.749400  -4.999220  -0.371413  85.765600  -0.010644   0.003940  64.324200  -0.001379   0.003205  88.983500  -9.999490  -0.182428 110.000000   0.000000   0.000409  80.000000   0.003992   0.005587   9.687980  13.065800   3.395390   4.313750  17.780100   8.573840 -12.117400  -7.922560  -0.840299   0.000000   0.000000  -0.000000   9.047810  16.031800  -6.618380   2.002240   5.570060  -9.927020  -3.843670  -6.039030   3.859930   0.000000   0.000000   0.000000
